<svg xmlns="http://www.w3.org/2000/svg" width="320" height="320" viewBox="0 0 320 320" fill="none" stroke="#0b0b0b" stroke-width="1.8" stroke-linecap="round" stroke-linejoin="round" color="#0b0b0b"><circle cx="52" cy="56" r="20"/><path d="M53.0 48.9 L59.1 54.7 L55.4 62.4 L47.0 61.2 L45.5 52.8 Z"/><path d="M53.0 48.9 L54.8 36.2"/><path d="M59.1 54.7 L71.7 52.5"/><path d="M55.4 62.4 L61.4 73.7"/><path d="M47.0 61.2 L38.1 70.4"/><path d="M45.5 52.8 L34.0 47.2"/><g transform="translate(158 48) rotate(-8) scale(1)"><path d="M-8 -16 L-20 -10 L-24 2 L-16 4 L-15 -3 L-15 18 L15 18 L15 -3 L16 4 L24 2 L20 -10 L8 -16 Q0 -8 -8 -16 Z"/><path d="M-15 4 H15"/></g><g transform="translate(262 62) rotate(14) scale(1)"><path d="M-20 -14 V4 Q-20 10 -12 10 H18 Q24 10 24 4 Q24 -2 16 -3 L4 -6 L2 -14 Z"/><path d="M-14 10 v4 M-4 10 v4 M8 10 v4 M18 10 v4"/><path d="M-4 -12 l4 3 M-4 -7 l5 2"/></g><g transform="translate(34 150) rotate(0) scale(1)"><path d="M-6 -6 L6 6 M6 -6 L-6 6"/><circle cx="58" cy="-18" r="7"/><path d="M8 -6 Q30 -34 48 -22" stroke-dasharray="3 5"/><path d="M42 -28 L49 -22 L41 -18"/></g><g transform="translate(172 150) rotate(-22) scale(1)"><circle cx="-6" cy="6" r="10"/><path d="M-2 -3 H22 V5 H4"/><path d="M14 -3 V-8"/><circle cx="-6" cy="6" r="3"/></g><g transform="translate(268 150) rotate(10) scale(1.05)"><path d="M0 -14 L4 -4 L14 -4 L6 2 L9 12 L0 6 L-9 12 L-6 2 L-14 -4 L-4 -4 Z"/></g><g transform="translate(66 252) rotate(-6) scale(1)"><path d="M-30 14 V-14 H30 V14"/><path d="M-30 -14 L-22 -6 H22 L30 -14 M-22 -6 V14 M22 -6 V14"/><path d="M-12 -6 V14 M0 -6 V14 M12 -6 V14 M-22 4 H22" stroke-dasharray="2 4"/></g><g transform="translate(162 256) rotate(8) scale(1)"><path d="M-11 14 L-3 -14 H3 L11 14 Z"/><path d="M-15 14 H15 M-7 0 H7 M-5 -7 H5"/></g><g transform="translate(256 256) rotate(-10) scale(1)"><path d="M-12 -18 H12 V-6 A12 12 0 0 1 -12 -6 Z"/><path d="M-12 -14 H-18 A6 6 0 0 0 -11 -3 M12 -14 H18 A6 6 0 0 1 11 -3"/><path d="M0 6 V13 M-9 13 H9 V19 H-9 Z"/></g><circle cx="118" cy="300" r="9"/><path d="M119.6 297.2 L121.2 300.7 L118.3 303.2 L115.0 301.3 L115.8 297.6 Z"/><path d="M119.6 297.2 L122.5 292.2"/><path d="M121.2 300.7 L126.8 301.9"/><path d="M118.3 303.2 L118.9 309.0"/><path d="M115.0 301.3 L109.8 303.7"/><path d="M115.8 297.6 L112.0 293.3"/><g transform="translate(300 108) rotate(12) scale(0.8)"><path d="M-2 18 V-18 L16 -11 L-2 -4"/><path d="M-10 18 A10 6 0 0 1 6 18"/></g><circle cx="115" cy="98" r="1.6" fill="currentColor" stroke="none"/><circle cx="212" cy="102" r="1.6" fill="currentColor" stroke="none"/><circle cx="108" cy="198" r="1.6" fill="currentColor" stroke="none"/><circle cx="212" cy="204" r="1.6" fill="currentColor" stroke="none"/><circle cx="300" cy="302" r="1.6" fill="currentColor" stroke="none"/><circle cx="20" cy="300" r="1.6" fill="currentColor" stroke="none"/><circle cx="300" cy="20" r="1.6" fill="currentColor" stroke="none"/></svg>
